<?xml version="1.0" encoding="utf-8"?>
<!-- Generator: Adobe Illustrator 26.0.3, SVG Export Plug-In . SVG Version: 6.00 Build 0)  -->
<svg version="1.1" id="Layer_1" xmlns="http://www.w3.org/2000/svg" xmlns:xlink="http://www.w3.org/1999/xlink" x="0px" y="0px"
	 viewBox="0 0 396 60" style="enable-background:new 0 0 396 60;" xml:space="preserve">
<style type="text/css">
	.st0{enable-background:new    ;}
	.st1{fill:#050D2B;}
	.st2{fill:#700E41;}
	.st3{fill:#8F7E2F;}
	.st4{fill:#396B2F;}
	.st5{fill:#197181;}
	.st6{fill:#F05500;}
	.st7{fill:#AD3275;}
</style>
<g class="st0">
	<path class="st1" d="M120.9,44h-1.1c-1.5,0-2.5-0.7-3-2.2l-1-2.9h-12.5l-1,2.9c-0.5,1.5-1.5,2.2-3,2.2h-1.1c-2,0-2.8-1.3-2.1-3.1
		l9.5-23.8c0.6-1.4,1.6-2.1,3.1-2.1h1.9c1.5,0,2.5,0.7,3.1,2.1L123,41C123.7,42.8,122.8,44,120.9,44z M109.5,22l-4.5,12.4h9.1
		L109.5,22z"/>
	<path class="st1" d="M162.1,32v9.4c0,1.7-0.9,2.7-2.7,2.7h-0.7c-1.7,0-2.7-0.9-2.7-2.7v-8.9c0-4.8-1.2-6.7-4.3-6.7
		c-3.2,0-4.5,1.9-4.5,6.5v9c0,1.7-0.9,2.7-2.7,2.7h-0.7c-1.7,0-2.7-0.9-2.7-2.7v-8.8c0-4.9-1.1-6.7-4.2-6.7c-3.2,0-4.5,2-4.5,6.9
		v8.6c0,1.7-0.9,2.7-2.7,2.7H129c-1.7,0-2.7-0.9-2.7-2.7V23.8c0-1.7,0.9-2.7,2.7-2.7h0.7c1.7,0,2.7,0.9,2.7,2.5v1.1
		c0.9-2.3,3.4-3.9,6.7-3.9c3.7,0,5.6,1.3,6.9,4.9c1.1-2.5,3.7-4.9,8-4.9C159.7,20.8,162.1,24,162.1,32z"/>
	<path class="st1" d="M169.5,51.4c-1.7,0-2.7-0.9-2.7-2.7V23.8c0-1.7,0.9-2.7,2.7-2.7h0.7c1.7,0,2.7,0.8,2.7,2.3V25
		c1.1-2.5,4.1-4.2,7.4-4.2c5.5,0,10,3.9,10,11.8c0,7.9-4.5,11.8-10,11.8c-3.4,0-6.3-1.7-7.4-4.3v8.8c0,1.7-0.9,2.7-2.7,2.7H169.5
		L169.5,51.4z M184.3,32.6c0-4.2-2.3-6.9-5.8-6.9c-3.5,0-5.8,2.6-5.8,6.9c0,4.2,2.3,6.8,5.8,6.8C181.9,39.4,184.3,36.8,184.3,32.6z"
		/>
	<path class="st1" d="M194.7,41.4v-25c0-1.7,0.9-2.7,2.7-2.7h0.8c1.7,0,2.7,0.9,2.7,2.7v25c0,1.7-0.9,2.7-2.7,2.7h-0.8
		C195.6,44,194.7,43.1,194.7,41.4z"/>
	<path class="st1" d="M205.1,32.6c0-7,4.8-11.8,11.7-11.8c6.7,0,10.9,4.1,11.3,10.5c0.1,1.8-0.8,2.7-2.7,2.7h-14.3
		c0.1,3.7,2.4,5.9,6.1,5.9c2.1,0,3.4-0.6,4.7-1.6c1-0.8,1.6-1.4,3-1l0.5,0.1c1.8,0.4,2.1,1.5,1,2.9c-1.9,2.6-5.2,4.1-9.5,4.1
		C209.8,44.4,205.1,39.8,205.1,32.6z M217,25c-3.1,0-5.3,1.7-5.7,5h11.3C222.3,27,220.2,25,217,25z"/>
	<path class="st1" d="M232.9,34.9v-9.2h-1c-1.4,0-2.2-0.9-2.2-2.3c0-1.5,0.7-2.3,2-2.3h1.2v-1.8c0-1.6,0.7-2.4,2.5-2.8l0.7-0.2
		c2-0.4,2.9,0.4,2.9,2.3v2.5h3.6c1.9,0,2.7,0.8,2.7,2.3c0,1.5-0.8,2.3-2.7,2.3H239v8.6c0,3.8,1.1,5.2,3.9,5.3
		c1.4,0.1,2.4,0.7,2.4,2.1c0.1,1.5-0.6,2.5-2.3,2.6c-0.4,0-0.8,0.1-1.1,0.1C235.7,44.4,232.9,41.9,232.9,34.9z"/>
	<path class="st1" d="M262.4,23.7l0,0.4c-0.2,1.6-1.1,2.1-2.8,2.4c-3,0.5-4.6,2.5-4.6,6.7v8.1c0,1.7-0.9,2.7-2.7,2.7h-0.7
		c-1.7,0-2.7-0.9-2.7-2.7V23.8c0-1.7,0.9-2.7,2.7-2.7h0.7c1.7,0,2.7,0.8,2.7,2.4v1c0.7-1.8,2.3-3.7,5.3-3.7
		C261.8,20.9,262.6,21.9,262.4,23.7z"/>
	<path class="st1" d="M263.7,32.6c0-7.7,4.3-11.8,10-11.8c3.2,0,6.3,1.6,7.4,4.4v-1.7c0-1.5,1-2.3,2.7-2.3h0.7
		c1.7,0,2.7,0.9,2.7,2.7v17.5c0,1.7-0.9,2.7-2.7,2.7h-0.7c-1.7,0-2.7-0.8-2.7-2.3v-1.6c-1.2,2.7-4.2,4.3-7.4,4.3
		C268.1,44.5,263.7,40.3,263.7,32.6z M281.4,32.6c0-4.2-2.3-6.8-5.8-6.8c-3.4,0-5.8,2.6-5.8,6.8c0,4.3,2.3,6.9,5.8,6.9
		C279,39.5,281.4,36.8,281.4,32.6z"/>
	<path class="st1" d="M291.7,32.6c0-7,4.9-11.8,11.5-11.8c5,0,8.4,1.9,10,5.2c0.8,1.6,0.2,2.8-1.6,3.1l-0.4,0.1
		c-1.5,0.2-2.1-0.2-3.1-1.3c-1.1-1.4-2.7-2.1-4.7-2.1c-3.4,0-5.7,2.7-5.7,6.8c0,4.1,2.3,6.8,5.7,6.8c2,0,3.5-0.8,4.6-2.1
		c0.9-1,1.6-1.5,3-1.3l0.3,0.1c1.8,0.3,2.5,1.4,1.8,3c-1.6,3.4-5.1,5.4-10,5.4C296.6,44.4,291.7,39.7,291.7,32.6z"/>
	<path class="st1" d="M336.5,44h-1.3c-1.4,0-2.4-0.5-3.2-1.7l-7.6-9.2v8.3c0,1.7-0.9,2.7-2.7,2.7H321c-1.7,0-2.7-0.9-2.7-2.7v-25
		c0-1.7,0.9-2.7,2.7-2.7h0.8c1.7,0,2.7,0.9,2.7,2.7v15l7.2-8.6c0.8-1.2,1.8-1.7,3.2-1.7h1.2c2.3,0,3,1.5,1.6,3.2l-7,7.7l7.5,8.7
		C339.5,42.6,338.7,44,336.5,44z"/>
	<path class="st1" d="M342.2,40.9c-1.2-1.4-1-3,1-3.4l0.6-0.1c1.2-0.3,1.8,0.1,3.1,1.1c1.3,1,3.1,1.6,4.8,1.6c2.5,0,4.1-1,4.1-2.5
		c0-4.6-13.9-1.3-13.9-9.9c0-4.3,4.2-6.8,9.6-6.8c3.2,0,6.6,1,8.6,3c1.3,1.3,1.1,2.9-0.8,3.3l-0.5,0.1c-1.5,0.3-2.1-0.4-3.1-1
		c-1.2-0.7-2.6-1.3-4-1.3c-2.3,0-3.8,0.8-3.8,2.3c0,4.5,14,0.8,14,9.8c0,4.5-4.1,7.4-10.2,7.4C347.9,44.4,344.2,43.1,342.2,40.9z"/>
</g>
<path class="st1" d="M25.6,30.4l12,20.8c0.1,0.2-0.5,0.8,0,0.9c-0.9,0.1-1.8-0.2-1.9-0.4L24.2,31.8c0.7-0.2,0-1.2,0.2-1.3
	C24.6,30.4,25.5,30.2,25.6,30.4z"/>
<path class="st1" d="M50.6,30.4l-12,20.8c-0.1,0.2,0.8,0.8,0.6,0.9c0.2,0.1,1.1-0.2,1.2-0.4l11.7-19.9c0-0.2,0-1.2-0.3-1.3
	C51.6,30.4,50.8,30.2,50.6,30.4z"/>
<path class="st1" d="M38.9,8.8L66.3,51c0.3,0.4,0.2,1-0.2,1.3c-0.4,0.3-1,0.2-1.3-0.2c0,0,0,0,0-0.1L37.3,9.8
	c-0.1-0.4-0.2-1,0.3-1.3C38,8.3,38.6,8.4,38.9,8.8z"/>
<path class="st1" d="M36.9,8.8L9.5,51c-0.3,0.4-0.2,1,0.3,1.3c0.4,0.3,1,0.2,1.8-0.3L38.5,9.8c0.3-0.4,0.1-1-0.3-1.3
	C37.8,8.3,37.2,8.4,36.9,8.8z"/>
<path class="st2" d="M21.4,22.6H27c4.9,0,7.4,3.3,7.4,7.4c0,4.8-2.5,7.4-7.4,7.4h-5.6c-4.1,0-7.2-2.6-7.2-7.4
	C14.3,25.9,17.3,22.6,21.4,22.6z"/>
<path class="st3" d="M62.7,44.3h5.6c4.1,0,7.4,3.3,7.4,7.4c0,4.1-3.3,7.4-7.4,7.4h-5.6c-4.1,0-7.4-3.3-7.4-7.4
	C55.3,47.7,58.6,44.3,62.7,44.3z"/>
<path class="st4" d="M48.8,22.6h5.6c4.1,0,7.4,3.3,7.4,7.4c0,0,0,0,0,0c0,4.8-3.3,7.4-7.4,7.4h-5.6c-4.1,0-7.4-2.6-7.4-7.4
	C41.4,25.9,44.7,22.6,48.8,22.6C48.8,22.6,48.8,22.6,48.8,22.6z"/>
<path class="st5" d="M35.3,44.3h5.6c4.1,0,7.4,3.3,7.4,7.4c0,4.1-3.3,7.4-7.4,7.4h-5.6c-4.1,0-7.4-3.3-7.4-7.4
	C27.9,47.7,31.2,44.3,35.3,44.3z"/>
<path class="st6" d="M35.3,0.8h5.6c4.1,0,7.4,3.3,7.4,7.4s-3.3,7.4-7.4,7.4h-5.6c-4.1,0-7.4-3.3-7.4-7.4S31.2,0.8,35.3,0.8z"/>
<path class="st7" d="M8.3,44.3h5.3c4.1,0,7.4,3.3,7.4,7.4c0,4.1-3.3,7.4-7.4,7.4H8.3c-4.4,0-7.7-3.3-7.7-7.4S3.9,44.3,8.3,44.3z"/>
</svg>
