<svg xmlns="http://www.w3.org/2000/svg" width="302" height="127">
  <path fill="#CCC" d="M130.368.82c4.989 0 9.033 3.307 9.033 8.295a9.033 9.033 0 0 1-9.033 9.033 9.033 9.033 0 0 1-9.033-9.033c0-4.988 4.044-8.295 9.033-8.295Z"/>
  <path fill="#CCC" d="M130.368 36.215a9.033 9.033 0 0 1 9.033 9.033 9.034 9.034 0 1 1-9.033-9.033Z"/>
  <path fill="#8F7E2F" d="M130.368 72.348a9.033 9.033 0 0 1 9.033 9.033 9.034 9.034 0 1 1-9.033-9.033Z"/>
  <path fill="#CCC" d="M130.368 108.481a9.033 9.033 0 0 1 9.033 9.033 9.033 9.033 0 0 1-9.033 9.033 9.033 9.033 0 0 1-9.033-9.033 9.033 9.033 0 0 1 9.033-9.033Z"/>
  <path fill="#CCC" d="M292.966.82c4.989 0 9.033 3.307 9.033 8.295a9.034 9.034 0 1 1-18.066 0c0-4.988 4.044-8.295 9.033-8.295Z"/>
  <path fill="#CCC" d="M292.966 36.215a9.033 9.033 0 0 1 9.033 9.033 9.034 9.034 0 1 1-9.033-9.033Z"/>
  <path fill="#CCC" d="M292.966 72.348a9.033 9.033 0 0 1 9.033 9.033 9.034 9.034 0 1 1-9.033-9.033Z"/>
  <path fill="#CCC" d="M292.966 108.481a9.033 9.033 0 0 1 9.033 9.033 9.033 9.033 0 0 1-9.033 9.033 9.033 9.033 0 0 1-9.033-9.033 9.033 9.033 0 0 1 9.033-9.033Z"/>
  <path fill="#CCC" d="M94.235 18.148a9.034 9.034 0 0 1 9.033 9.034 9.033 9.033 0 0 1-9.033 9.033 9.033 9.033 0 0 1-9.033-9.033 9.034 9.034 0 0 1 9.033-9.034Z"/>
  <path fill="#396B2F" d="M94.235 54.282a9.033 9.033 0 0 1 9.033 9.033 9.033 9.033 0 0 1-9.033 9.033 9.033 9.033 0 0 1-9.033-9.033 9.033 9.033 0 0 1 9.033-9.033Z"/>
  <path fill="#CCC" d="M94.235 90.415a9.033 9.033 0 0 1 9.033 9.033 9.033 9.033 0 0 1-9.033 9.033 9.033 9.033 0 0 1-9.033-9.033 9.033 9.033 0 0 1 9.033-9.033Z"/>
  <path fill="#CCC" d="M209.86.82c4.989 0 9.033 3.307 9.033 8.295a9.034 9.034 0 1 1-18.066 0c0-4.988 4.044-8.295 9.033-8.295Z"/>
  <path fill="#CCC" d="M209.86 36.215a9.033 9.033 0 0 1 9.033 9.033 9.034 9.034 0 1 1-9.033-9.033Z"/>
  <path fill="#CCC" d="M209.86 72.348a9.033 9.033 0 0 1 9.033 9.033 9.034 9.034 0 1 1-9.033-9.033Z"/>
  <path fill="#CCC" d="M209.86 108.481a9.033 9.033 0 0 1 9.033 9.033 9.034 9.034 0 1 1-9.033-9.033Z"/>
  <path fill="#CCC" d="M58.102.82c5.808 0 9.033 3.307 9.033 8.295 0 4.989-3.225 9.033-9.033 9.033-4.989 0-8.412-4.044-8.412-9.033 0-4.988 3.423-8.295 8.412-8.295Z"/>
  <path fill="#F05500" d="M58.102 36.215c5.808 0 9.033 4.044 9.033 9.033s-3.225 9.034-9.033 9.034c-4.989 0-8.412-4.045-8.412-9.034 0-4.989 3.423-9.033 8.412-9.033Z"/>
  <path fill="#197181" d="M58.102 72.348c5.808 0 9.033 4.044 9.033 9.033s-3.225 9.034-9.033 9.034c-4.989 0-8.412-4.045-8.412-9.034 0-4.989 3.423-9.033 8.412-9.033Z"/>
  <path fill="#CCC" d="M58.102 108.481c5.808 0 9.033 4.044 9.033 9.033s-3.225 9.033-9.033 9.033c-4.989 0-8.412-4.044-8.412-9.033s3.423-9.033 8.412-9.033Z"/>
  <path fill="#CCC" d="M168.91 18.149a9.033 9.033 0 1 1-9.034 9.033 9.034 9.034 0 0 1 9.034-9.033Z"/>
  <path fill="#CCC" d="M168.91 54.282a9.033 9.033 0 1 1-9.034 9.033 9.034 9.034 0 0 1 9.034-9.033Z"/>
  <path fill="#CCC" d="M168.91 90.415a9.033 9.033 0 1 1-9.034 9.033 9.034 9.034 0 0 1 9.034-9.033Z"/>
  <path fill="#CCC" d="M250.811 18.149a9.033 9.033 0 0 1 9.033 9.033 9.033 9.033 0 0 1-9.033 9.033 9.033 9.033 0 0 1-9.033-9.033 9.033 9.033 0 0 1 9.033-9.033Z"/>
  <path fill="#CCC" d="M250.811 54.282a9.033 9.033 0 0 1 9.033 9.033 9.033 9.033 0 0 1-9.033 9.033 9.033 9.033 0 0 1-9.033-9.033 9.033 9.033 0 0 1 9.033-9.033Z"/>
  <path fill="#CCC" d="M250.811 90.415a9.033 9.033 0 0 1 9.033 9.033 9.033 9.033 0 0 1-9.033 9.033 9.033 9.033 0 0 1-9.033-9.033 9.033 9.033 0 0 1 9.033-9.033Z"/>
  <path fill="#CCC" d="M27.991 21.151c3.326 0 6.139 2.696 6.139 6.022 0 3.327-2.813 6.023-6.139 6.023a6.022 6.022 0 0 1 0-12.045Z"/>
  <path fill="#700E41" d="M27.991 57.285c3.326 0 6.139 2.697 6.139 6.022 0 3.327-2.813 6.023-6.139 6.023a6.022 6.022 0 0 1 0-12.045Z"/>
  <path fill="#CCC" d="M27.991 93.419c3.326 0 6.139 2.697 6.139 6.023 0 3.326-2.813 6.022-6.139 6.022a6.023 6.023 0 0 1 0-12.045Z"/>
  <path fill="#CCC" d="M3.902 5.498a3.012 3.012 0 1 1 0 6.024 3.012 3.012 0 0 1 0-6.024Z"/>
  <path fill="#CCC" d="M3.902 41.631a3.012 3.012 0 1 1 0 6.024 3.012 3.012 0 0 1 0-6.024Z"/>
  <path fill="#AD3275" d="M3.902 77.765a3.012 3.012 0 1 1 0 6.024 3.012 3.012 0 0 1 0-6.024Z"/>
  <path fill="#CCC" d="M3.902 113.898a3.013 3.013 0 1 1-.001 6.025 3.013 3.013 0 0 1 .001-6.025Z"/>
</svg>
