<svg xmlns="http://www.w3.org/2000/svg"  viewBox="0 0 63.13 64.34" width="1em" height="1em">
	<g stroke="#1a7182">
    <path d="M52.68,31.08h5.57V5.48H45.68V1.4h12.22c2.45,0,4.43,1.98,4.43,4.43l0,0v24.91c0,2.45-1.98,4.43-4.43,4.43l0,0h-5.22V31.08z"/>
    <path d="M38.02,42.72h7.81V6.84H33.02V1.12h12.32c3.43,0,6.21,2.78,6.21,6.21l0,0v34.92c0,3.43-2.78,6.21-6.21,6.21l0,0h-7.32V42.72z"/>
    <path d="M7.32,7.55v49.46H30.6V7.55L7.32,7.55z M36.81,57.01c0,3.43-2.78,6.21-6.21,6.21l0,0H7.32c-3.43,0-6.21-2.78-6.21-6.21l0,0V7.55c0-3.41,2.79-6.21,6.21-6.21H30.6c3.43,0,6.21,2.78,6.21,6.21l0,0V57.01z"/>
  </g>
</svg>
