<svg 
 xmlns="http://www.w3.org/2000/svg"
 xmlns:xlink="http://www.w3.org/1999/xlink"
 width="230px" height="840px">
<path fill-rule="evenodd"  fill="rgb(204, 204, 204)"
 d="M214.999,0.0 C223.284,0.0 229.999,6.715 229.999,14.999 C229.999,23.284 223.284,29.999 214.999,29.999 C206.715,29.999 199.999,23.284 199.999,14.999 C199.999,6.715 206.715,0.0 214.999,0.0 Z"/>
<path fill-rule="evenodd"  fill="rgb(204, 204, 204)"
 d="M214.999,59.999 C223.284,59.999 229.999,66.715 229.999,74.999 C229.999,83.284 223.284,89.999 214.999,89.999 C206.715,89.999 199.999,83.284 199.999,74.999 C199.999,66.715 206.715,59.999 214.999,59.999 Z"/>
<path fill-rule="evenodd"  fill="rgb(143, 126, 47)"
 d="M214.999,119.999 C223.284,119.999 229.999,126.715 229.999,134.999 C229.999,143.284 223.284,149.999 214.999,149.999 C206.715,149.999 199.999,143.284 199.999,134.999 C199.999,126.715 206.715,119.999 214.999,119.999 Z"/>
<path fill-rule="evenodd"  fill="rgb(204, 204, 204)"
 d="M214.999,179.999 C223.284,179.999 229.999,186.715 229.999,194.999 C229.999,203.284 223.284,209.999 214.999,209.999 C206.715,209.999 199.999,203.284 199.999,194.999 C199.999,186.715 206.715,179.999 214.999,179.999 Z"/>
<path fill-rule="evenodd"  fill="rgb(204, 204, 204)"
 d="M214.999,239.999 C223.284,239.999 229.999,246.715 229.999,254.999 C229.999,263.284 223.284,269.999 214.999,269.999 C206.715,269.999 199.999,263.284 199.999,254.999 C199.999,246.715 206.715,239.999 214.999,239.999 Z"/>
<path fill-rule="evenodd"  fill="rgb(204, 204, 204)"
 d="M214.999,299.999 C223.284,299.999 229.999,306.715 229.999,315.0 C229.999,323.284 223.284,329.999 214.999,329.999 C206.715,329.999 199.999,323.284 199.999,315.0 C199.999,306.715 206.715,299.999 214.999,299.999 Z"/>
<path fill-rule="evenodd"  fill="rgb(204, 204, 204)"
 d="M214.999,359.999 C223.284,359.999 229.999,366.715 229.999,374.999 C229.999,383.284 223.284,389.999 214.999,389.999 C206.715,389.999 199.999,383.284 199.999,374.999 C199.999,366.715 206.715,359.999 214.999,359.999 Z"/>
<path fill-rule="evenodd"  fill="rgb(204, 204, 204)"
 d="M214.999,419.999 C223.284,419.999 229.999,426.715 229.999,434.999 C229.999,443.284 223.284,449.999 214.999,449.999 C206.715,449.999 199.999,443.284 199.999,434.999 C199.999,426.715 206.715,419.999 214.999,419.999 Z"/>
<path fill-rule="evenodd"  fill="rgb(204, 204, 204)"
 d="M214.999,479.999 C223.284,479.999 229.999,486.715 229.999,494.999 C229.999,503.284 223.284,509.999 214.999,509.999 C206.715,509.999 199.999,503.284 199.999,494.999 C199.999,486.715 206.715,479.999 214.999,479.999 Z"/>
<path fill-rule="evenodd"  fill="rgb(204, 204, 204)"
 d="M214.999,539.999 C223.284,539.999 229.999,546.715 229.999,554.999 C229.999,563.284 223.284,569.999 214.999,569.999 C206.715,569.999 199.999,563.284 199.999,554.999 C199.999,546.715 206.715,539.999 214.999,539.999 Z"/>
<path fill-rule="evenodd"  fill="rgb(204, 204, 204)"
 d="M214.999,599.999 C223.284,599.999 229.999,606.715 229.999,614.999 C229.999,623.284 223.284,629.999 214.999,629.999 C206.715,629.999 199.999,623.284 199.999,614.999 C199.999,606.715 206.715,599.999 214.999,599.999 Z"/>
<path fill-rule="evenodd"  fill="rgb(204, 204, 204)"
 d="M214.999,659.999 C223.284,659.999 229.999,666.715 229.999,674.999 C229.999,683.284 223.284,689.999 214.999,689.999 C206.715,689.999 199.999,683.284 199.999,674.999 C199.999,666.715 206.715,659.999 214.999,659.999 Z"/>
<path fill-rule="evenodd"  fill="rgb(204, 204, 204)"
 d="M214.999,719.999 C223.284,719.999 229.999,726.715 229.999,734.999 C229.999,743.284 223.284,749.999 214.999,749.999 C206.715,749.999 199.999,743.284 199.999,734.999 C199.999,726.715 206.715,719.999 214.999,719.999 Z"/>
<path fill-rule="evenodd"  fill="rgb(204, 204, 204)"
 d="M214.999,779.999 C223.284,779.999 229.999,786.715 229.999,794.999 C229.999,803.284 223.284,809.999 214.999,809.999 C206.715,809.999 199.999,803.284 199.999,794.999 C199.999,786.715 206.715,779.999 214.999,779.999 Z"/>
<path fill-rule="evenodd"  fill="rgb(204, 204, 204)"
 d="M154.999,29.999 C163.284,29.999 169.999,36.715 169.999,44.999 C169.999,53.284 163.284,59.999 154.999,59.999 C146.715,59.999 139.999,53.284 139.999,44.999 C139.999,36.715 146.715,29.999 154.999,29.999 Z"/>
<path fill-rule="evenodd"  fill="rgb(57, 107, 47)"
 d="M154.999,89.999 C163.284,89.999 169.999,96.715 169.999,104.999 C169.999,113.284 163.284,119.999 154.999,119.999 C146.715,119.999 139.999,113.284 139.999,104.999 C139.999,96.715 146.715,89.999 154.999,89.999 Z"/>
<path fill-rule="evenodd"  fill="rgb(204, 204, 204)"
 d="M154.999,149.999 C163.284,149.999 169.999,156.715 169.999,164.999 C169.999,173.284 163.284,179.999 154.999,179.999 C146.715,179.999 139.999,173.284 139.999,164.999 C139.999,156.715 146.715,149.999 154.999,149.999 Z"/>
<path fill-rule="evenodd"  fill="rgb(204, 204, 204)"
 d="M154.999,209.999 C163.284,209.999 169.999,216.715 169.999,224.999 C169.999,233.284 163.284,239.999 154.999,239.999 C146.715,239.999 139.999,233.284 139.999,224.999 C139.999,216.715 146.715,209.999 154.999,209.999 Z"/>
<path fill-rule="evenodd"  fill="rgb(204, 204, 204)"
 d="M154.999,269.999 C163.284,269.999 169.999,276.715 169.999,284.999 C169.999,293.284 163.284,299.999 154.999,299.999 C146.715,299.999 139.999,293.284 139.999,284.999 C139.999,276.715 146.715,269.999 154.999,269.999 Z"/>
<path fill-rule="evenodd"  fill="rgb(204, 204, 204)"
 d="M154.999,329.999 C163.284,329.999 169.999,336.715 169.999,344.999 C169.999,353.284 163.284,359.999 154.999,359.999 C146.715,359.999 139.999,353.284 139.999,344.999 C139.999,336.715 146.715,329.999 154.999,329.999 Z"/>
<path fill-rule="evenodd"  fill="rgb(204, 204, 204)"
 d="M154.999,389.999 C163.284,389.999 169.999,396.715 169.999,404.999 C169.999,413.284 163.284,419.999 154.999,419.999 C146.715,419.999 139.999,413.284 139.999,404.999 C139.999,396.715 146.715,389.999 154.999,389.999 Z"/>
<path fill-rule="evenodd"  fill="rgb(204, 204, 204)"
 d="M154.999,449.999 C163.284,449.999 169.999,456.715 169.999,464.999 C169.999,473.284 163.284,479.999 154.999,479.999 C146.715,479.999 139.999,473.284 139.999,464.999 C139.999,456.715 146.715,449.999 154.999,449.999 Z"/>
<path fill-rule="evenodd"  fill="rgb(204, 204, 204)"
 d="M154.999,509.999 C163.284,509.999 169.999,516.715 169.999,524.999 C169.999,533.284 163.284,539.999 154.999,539.999 C146.715,539.999 139.999,533.284 139.999,524.999 C139.999,516.715 146.715,509.999 154.999,509.999 Z"/>
<path fill-rule="evenodd"  fill="rgb(204, 204, 204)"
 d="M154.999,569.999 C163.284,569.999 169.999,576.715 169.999,584.999 C169.999,593.284 163.284,599.999 154.999,599.999 C146.715,599.999 139.999,593.284 139.999,584.999 C139.999,576.715 146.715,569.999 154.999,569.999 Z"/>
<path fill-rule="evenodd"  fill="rgb(204, 204, 204)"
 d="M154.999,629.999 C163.284,629.999 169.999,636.715 169.999,644.999 C169.999,653.284 163.284,659.999 154.999,659.999 C146.715,659.999 139.999,653.284 139.999,644.999 C139.999,636.715 146.715,629.999 154.999,629.999 Z"/>
<path fill-rule="evenodd"  fill="rgb(204, 204, 204)"
 d="M154.999,689.999 C163.284,689.999 169.999,696.715 169.999,704.999 C169.999,713.284 163.284,719.999 154.999,719.999 C146.715,719.999 139.999,713.284 139.999,704.999 C139.999,696.715 146.715,689.999 154.999,689.999 Z"/>
<path fill-rule="evenodd"  fill="rgb(204, 204, 204)"
 d="M154.999,749.999 C163.284,749.999 169.999,756.715 169.999,764.999 C169.999,773.284 163.284,779.999 154.999,779.999 C146.715,779.999 139.999,773.284 139.999,764.999 C139.999,756.715 146.715,749.999 154.999,749.999 Z"/>
<path fill-rule="evenodd"  fill="rgb(204, 204, 204)"
 d="M154.999,809.999 C163.284,809.999 169.999,816.715 169.999,824.999 C169.999,833.284 163.284,839.999 154.999,839.999 C146.715,839.999 139.999,833.284 139.999,824.999 C139.999,816.715 146.715,809.999 154.999,809.999 Z"/>
<path fill-rule="evenodd"  fill="rgb(204, 204, 204)"
 d="M94.999,0.0 C103.284,0.0 109.999,6.715 109.999,14.999 C109.999,23.284 103.284,29.999 94.999,29.999 C86.715,29.999 79.999,23.284 79.999,14.999 C79.999,6.715 86.715,0.0 94.999,0.0 Z"/>
<path fill-rule="evenodd"  fill="rgb(240, 85, 0)"
 d="M94.999,59.999 C103.284,59.999 109.999,66.715 109.999,74.999 C109.999,83.284 103.284,89.999 94.999,89.999 C86.715,89.999 79.999,83.284 79.999,74.999 C79.999,66.715 86.715,59.999 94.999,59.999 Z"/>
<path fill-rule="evenodd"  fill="rgb(25, 113, 129)"
 d="M94.999,119.999 C103.284,119.999 109.999,126.715 109.999,134.999 C109.999,143.284 103.284,149.999 94.999,149.999 C86.715,149.999 79.999,143.284 79.999,134.999 C79.999,126.715 86.715,119.999 94.999,119.999 Z"/>
<path fill-rule="evenodd"  fill="rgb(204, 204, 204)"
 d="M94.999,179.999 C103.284,179.999 109.999,186.715 109.999,194.999 C109.999,203.284 103.284,209.999 94.999,209.999 C86.715,209.999 79.999,203.284 79.999,194.999 C79.999,186.715 86.715,179.999 94.999,179.999 Z"/>
<path fill-rule="evenodd"  fill="rgb(204, 204, 204)"
 d="M94.999,239.999 C103.284,239.999 109.999,246.715 109.999,254.999 C109.999,263.284 103.284,269.999 94.999,269.999 C86.715,269.999 79.999,263.284 79.999,254.999 C79.999,246.715 86.715,239.999 94.999,239.999 Z"/>
<path fill-rule="evenodd"  fill="rgb(204, 204, 204)"
 d="M94.999,299.999 C103.284,299.999 109.999,306.715 109.999,315.0 C109.999,323.284 103.284,329.999 94.999,329.999 C86.715,329.999 79.999,323.284 79.999,315.0 C79.999,306.715 86.715,299.999 94.999,299.999 Z"/>
<path fill-rule="evenodd"  fill="rgb(204, 204, 204)"
 d="M94.999,359.999 C103.284,359.999 109.999,366.715 109.999,374.999 C109.999,383.284 103.284,389.999 94.999,389.999 C86.715,389.999 79.999,383.284 79.999,374.999 C79.999,366.715 86.715,359.999 94.999,359.999 Z"/>
<path fill-rule="evenodd"  fill="rgb(204, 204, 204)"
 d="M94.999,419.999 C103.284,419.999 109.999,426.715 109.999,434.999 C109.999,443.284 103.284,449.999 94.999,449.999 C86.715,449.999 79.999,443.284 79.999,434.999 C79.999,426.715 86.715,419.999 94.999,419.999 Z"/>
<path fill-rule="evenodd"  fill="rgb(204, 204, 204)"
 d="M94.999,479.999 C103.284,479.999 109.999,486.715 109.999,494.999 C109.999,503.284 103.284,509.999 94.999,509.999 C86.715,509.999 79.999,503.284 79.999,494.999 C79.999,486.715 86.715,479.999 94.999,479.999 Z"/>
<path fill-rule="evenodd"  fill="rgb(204, 204, 204)"
 d="M94.999,539.999 C103.284,539.999 109.999,546.715 109.999,554.999 C109.999,563.284 103.284,569.999 94.999,569.999 C86.715,569.999 79.999,563.284 79.999,554.999 C79.999,546.715 86.715,539.999 94.999,539.999 Z"/>
<path fill-rule="evenodd"  fill="rgb(204, 204, 204)"
 d="M94.999,599.999 C103.284,599.999 109.999,606.715 109.999,614.999 C109.999,623.284 103.284,629.999 94.999,629.999 C86.715,629.999 79.999,623.284 79.999,614.999 C79.999,606.715 86.715,599.999 94.999,599.999 Z"/>
<path fill-rule="evenodd"  fill="rgb(204, 204, 204)"
 d="M94.999,659.999 C103.284,659.999 109.999,666.715 109.999,674.999 C109.999,683.284 103.284,689.999 94.999,689.999 C86.715,689.999 79.999,683.284 79.999,674.999 C79.999,666.715 86.715,659.999 94.999,659.999 Z"/>
<path fill-rule="evenodd"  fill="rgb(204, 204, 204)"
 d="M94.999,719.999 C103.284,719.999 109.999,726.715 109.999,734.999 C109.999,743.284 103.284,749.999 94.999,749.999 C86.715,749.999 79.999,743.284 79.999,734.999 C79.999,726.715 86.715,719.999 94.999,719.999 Z"/>
<path fill-rule="evenodd"  fill="rgb(204, 204, 204)"
 d="M94.999,779.999 C103.284,779.999 109.999,786.715 109.999,794.999 C109.999,803.284 103.284,809.999 94.999,809.999 C86.715,809.999 79.999,803.284 79.999,794.999 C79.999,786.715 86.715,779.999 94.999,779.999 Z"/>
<path fill-rule="evenodd"  fill="rgb(204, 204, 204)"
 d="M44.999,34.985 C50.522,34.985 55.0,39.462 55.0,44.985 C55.0,50.509 50.522,54.986 44.999,54.986 C39.476,54.986 34.999,50.509 34.999,44.985 C34.999,39.462 39.476,34.985 44.999,34.985 Z"/>
<path fill-rule="evenodd"  fill="rgb(112, 14, 65)"
 d="M44.999,94.987 C50.522,94.987 55.0,99.464 55.0,104.987 C55.0,110.511 50.522,114.988 44.999,114.988 C39.476,114.988 34.999,110.511 34.999,104.987 C34.999,99.464 39.476,94.987 44.999,94.987 Z"/>
<path fill-rule="evenodd"  fill="rgb(204, 204, 204)"
 d="M44.999,154.989 C50.522,154.989 55.0,159.466 55.0,164.989 C55.0,170.513 50.522,174.990 44.999,174.990 C39.476,174.990 34.999,170.513 34.999,164.989 C34.999,159.466 39.476,154.989 44.999,154.989 Z"/>
<path fill-rule="evenodd"  fill="rgb(204, 204, 204)"
 d="M44.999,214.991 C50.522,214.991 55.0,219.468 55.0,224.991 C55.0,230.515 50.522,234.992 44.999,234.992 C39.476,234.992 34.999,230.515 34.999,224.991 C34.999,219.468 39.476,214.991 44.999,214.991 Z"/>
<path fill-rule="evenodd"  fill="rgb(204, 204, 204)"
 d="M44.999,274.993 C50.522,274.993 55.0,279.470 55.0,284.993 C55.0,290.516 50.522,294.994 44.999,294.994 C39.476,294.994 34.999,290.516 34.999,284.993 C34.999,279.470 39.476,274.993 44.999,274.993 Z"/>
<path fill-rule="evenodd"  fill="rgb(204, 204, 204)"
 d="M44.999,334.995 C50.522,334.995 55.0,339.472 55.0,344.995 C55.0,350.518 50.522,354.996 44.999,354.996 C39.476,354.996 34.999,350.518 34.999,344.995 C34.999,339.472 39.476,334.995 44.999,334.995 Z"/>
<path fill-rule="evenodd"  fill="rgb(204, 204, 204)"
 d="M44.999,394.997 C50.522,394.997 55.0,399.474 55.0,404.997 C55.0,410.520 50.522,414.998 44.999,414.998 C39.476,414.998 34.999,410.520 34.999,404.997 C34.999,399.474 39.476,394.997 44.999,394.997 Z"/>
<path fill-rule="evenodd"  fill="rgb(204, 204, 204)"
 d="M44.999,454.999 C50.522,454.999 55.0,459.476 55.0,464.999 C55.0,470.522 50.522,475.0 44.999,475.0 C39.476,475.0 34.999,470.522 34.999,464.999 C34.999,459.476 39.476,454.999 44.999,454.999 Z"/>
<path fill-rule="evenodd"  fill="rgb(204, 204, 204)"
 d="M44.999,515.1 C50.522,515.1 55.0,519.478 55.0,525.1 C55.0,530.524 50.522,535.2 44.999,535.2 C39.476,535.2 34.999,530.524 34.999,525.1 C34.999,519.478 39.476,515.1 44.999,515.1 Z"/>
<path fill-rule="evenodd"  fill="rgb(204, 204, 204)"
 d="M44.999,575.3 C50.522,575.3 55.0,579.480 55.0,585.3 C55.0,590.527 50.522,595.4 44.999,595.4 C39.476,595.4 34.999,590.527 34.999,585.3 C34.999,579.480 39.476,575.3 44.999,575.3 Z"/>
<path fill-rule="evenodd"  fill="rgb(204, 204, 204)"
 d="M44.999,635.5 C50.522,635.5 55.0,639.482 55.0,645.5 C55.0,650.529 50.522,655.6 44.999,655.6 C39.476,655.6 34.999,650.529 34.999,645.5 C34.999,639.482 39.476,635.5 44.999,635.5 Z"/>
<path fill-rule="evenodd"  fill="rgb(204, 204, 204)"
 d="M44.999,695.7 C50.522,695.7 55.0,699.484 55.0,705.7 C55.0,710.531 50.522,715.8 44.999,715.8 C39.476,715.8 34.999,710.531 34.999,705.7 C34.999,699.484 39.476,695.7 44.999,695.7 Z"/>
<path fill-rule="evenodd"  fill="rgb(204, 204, 204)"
 d="M44.999,755.9 C50.522,755.9 55.0,759.486 55.0,765.9 C55.0,770.533 50.522,775.10 44.999,775.10 C39.476,775.10 34.999,770.533 34.999,765.9 C34.999,759.486 39.476,755.9 44.999,755.9 Z"/>
<path fill-rule="evenodd"  fill="rgb(204, 204, 204)"
 d="M44.999,815.11 C50.522,815.11 55.0,819.488 55.0,825.11 C55.0,830.535 50.522,835.12 44.999,835.12 C39.476,835.12 34.999,830.535 34.999,825.11 C34.999,819.488 39.476,815.11 44.999,815.11 Z"/>
<path fill-rule="evenodd"  fill="rgb(204, 204, 204)"
 d="M4.999,8.992 C7.761,8.992 10.0,11.231 10.0,13.992 C10.0,16.754 7.761,18.993 4.999,18.993 C2.238,18.993 0.0,16.754 0.0,13.992 C0.0,11.231 2.238,8.992 4.999,8.992 Z"/>
<path fill-rule="evenodd"  fill="rgb(204, 204, 204)"
 d="M4.999,68.993 C7.761,68.993 10.0,71.232 10.0,73.993 C10.0,76.755 7.761,78.994 4.999,78.994 C2.238,78.994 0.0,76.755 0.0,73.993 C0.0,71.232 2.238,68.993 4.999,68.993 Z"/>
<path fill-rule="evenodd"  fill="rgb(173, 50, 117)"
 d="M4.999,128.994 C7.761,128.994 10.0,131.233 10.0,133.994 C10.0,136.756 7.761,138.995 4.999,138.995 C2.238,138.995 0.0,136.756 0.0,133.994 C0.0,131.233 2.238,128.994 4.999,128.994 Z"/>
<path fill-rule="evenodd"  fill="rgb(204, 204, 204)"
 d="M4.999,188.995 C7.761,188.995 10.0,191.234 10.0,193.995 C10.0,196.757 7.761,198.996 4.999,198.996 C2.238,198.996 0.0,196.757 0.0,193.995 C0.0,191.234 2.238,188.995 4.999,188.995 Z"/>
<path fill-rule="evenodd"  fill="rgb(204, 204, 204)"
 d="M4.999,248.996 C7.761,248.996 10.0,251.235 10.0,253.996 C10.0,256.758 7.761,258.997 4.999,258.997 C2.238,258.997 0.0,256.758 0.0,253.996 C0.0,251.235 2.238,248.996 4.999,248.996 Z"/>
<path fill-rule="evenodd"  fill="rgb(204, 204, 204)"
 d="M4.999,308.997 C7.761,308.997 10.0,311.236 10.0,313.997 C10.0,316.759 7.761,318.998 4.999,318.998 C2.238,318.998 0.0,316.759 0.0,313.997 C0.0,311.236 2.238,308.997 4.999,308.997 Z"/>
<path fill-rule="evenodd"  fill="rgb(204, 204, 204)"
 d="M4.999,368.998 C7.761,368.998 10.0,371.237 10.0,373.998 C10.0,376.760 7.761,378.999 4.999,378.999 C2.238,378.999 0.0,376.760 0.0,373.998 C0.0,371.237 2.238,368.998 4.999,368.998 Z"/>
<path fill-rule="evenodd"  fill="rgb(204, 204, 204)"
 d="M4.999,428.999 C7.761,428.999 10.0,431.238 10.0,433.999 C10.0,436.761 7.761,439.0 4.999,439.0 C2.238,439.0 0.0,436.761 0.0,433.999 C0.0,431.238 2.238,428.999 4.999,428.999 Z"/>
<path fill-rule="evenodd"  fill="rgb(204, 204, 204)"
 d="M4.999,489.0 C7.761,489.0 10.0,491.239 10.0,494.0 C10.0,496.762 7.761,499.1 4.999,499.1 C2.238,499.1 0.0,496.762 0.0,494.0 C0.0,491.239 2.238,489.0 4.999,489.0 Z"/>
<path fill-rule="evenodd"  fill="rgb(204, 204, 204)"
 d="M4.999,549.1 C7.761,549.1 10.0,551.240 10.0,554.1 C10.0,556.763 7.761,559.2 4.999,559.2 C2.238,559.2 0.0,556.763 0.0,554.1 C0.0,551.240 2.238,549.1 4.999,549.1 Z"/>
<path fill-rule="evenodd"  fill="rgb(204, 204, 204)"
 d="M4.999,609.2 C7.761,609.2 10.0,611.241 10.0,614.2 C10.0,616.764 7.761,619.3 4.999,619.3 C2.238,619.3 0.0,616.764 0.0,614.2 C0.0,611.241 2.238,609.2 4.999,609.2 Z"/>
<path fill-rule="evenodd"  fill="rgb(204, 204, 204)"
 d="M4.999,669.3 C7.761,669.3 10.0,671.242 10.0,674.3 C10.0,676.765 7.761,679.4 4.999,679.4 C2.238,679.4 0.0,676.765 0.0,674.3 C0.0,671.242 2.238,669.3 4.999,669.3 Z"/>
<path fill-rule="evenodd"  fill="rgb(204, 204, 204)"
 d="M4.999,729.4 C7.761,729.4 10.0,731.243 10.0,734.4 C10.0,736.766 7.761,739.5 4.999,739.5 C2.238,739.5 0.0,736.766 0.0,734.4 C0.0,731.243 2.238,729.4 4.999,729.4 Z"/>
<path fill-rule="evenodd"  fill="rgb(204, 204, 204)"
 d="M4.999,789.5 C7.761,789.5 10.0,791.244 10.0,794.5 C10.0,796.767 7.761,799.6 4.999,799.6 C2.238,799.6 0.0,796.767 0.0,794.5 C0.0,791.244 2.238,789.5 4.999,789.5 Z"/>
</svg>