<svg id="Layer_1" data-name="Layer 1" xmlns="http://www.w3.org/2000/svg" viewBox="0 0 361.36 59.1"><defs><style>.cls-1{isolation:isolate;}.cls-2,.cls-3{fill:#fff;}.cls-3,.cls-4,.cls-5,.cls-6,.cls-7,.cls-8,.cls-9{fill-rule:evenodd;}.cls-4{fill:#700e41;}.cls-5{fill:#8f7e2f;}.cls-6{fill:#396b2f;}.cls-7{fill:#197181;}.cls-8{fill:#f05500;}.cls-9{fill:#ad3275;}</style></defs><g class="cls-1"><g class="cls-1"><path class="cls-2" d="M121.06,49.07H120a3,3,0,0,1-3-2.16l-1-2.87H103.37l-1,2.87a3,3,0,0,1-3,2.16H98.24c-2,0-2.83-1.26-2.11-3.07l9.46-23.77a3,3,0,0,1,3.08-2.11h1.89a3,3,0,0,1,3.07,2.11L123.13,46C123.85,47.81,123,49.07,121.06,49.07ZM109.61,27l-4.53,12.38h9.09Z" transform="translate(-0.72 -0.45)"/><path class="cls-2" d="M162.22,37v9.41a2.4,2.4,0,0,1-2.66,2.66h-.75a2.4,2.4,0,0,1-2.66-2.66V37.55c0-4.83-1.21-6.67-4.34-6.67s-4.5,1.9-4.5,6.49v9a2.4,2.4,0,0,1-2.66,2.66h-.75a2.4,2.4,0,0,1-2.66-2.66V37.58c0-4.94-1.09-6.67-4.18-6.67s-4.49,2-4.49,6.88v8.62a2.4,2.4,0,0,1-2.67,2.66h-.74a2.4,2.4,0,0,1-2.67-2.66V28.86a2.4,2.4,0,0,1,2.67-2.66h.74c1.72,0,2.67.88,2.67,2.5v1.09c.88-2.27,3.37-3.94,6.65-3.94,3.71,0,5.61,1.32,6.88,4.87a8.4,8.4,0,0,1,8-4.89C159.85,25.83,162.22,29.05,162.22,37Z" transform="translate(-0.72 -0.45)"/><path class="cls-2" d="M169.64,56.47A2.41,2.41,0,0,1,167,53.81v-25a2.4,2.4,0,0,1,2.67-2.66h.74c1.68,0,2.67.83,2.67,2.27V30a8.08,8.08,0,0,1,7.44-4.24c5.48,0,10,3.86,10,11.79s-4.54,11.8-10,11.8c-3.36,0-6.31-1.71-7.41-4.35v8.77a2.41,2.41,0,0,1-2.67,2.66Zm14.79-18.86c0-4.25-2.31-6.89-5.77-6.89s-5.8,2.6-5.8,6.89,2.32,6.84,5.75,6.84S184.43,41.81,184.43,37.61Z" transform="translate(-0.72 -0.45)"/><path class="cls-2" d="M194.81,46.41v-25a2.4,2.4,0,0,1,2.67-2.66h.78a2.4,2.4,0,0,1,2.67,2.66v25a2.4,2.4,0,0,1-2.67,2.66h-.78A2.4,2.4,0,0,1,194.81,46.41Z" transform="translate(-0.72 -0.45)"/><path class="cls-2" d="M205.25,37.63c0-7,4.79-11.8,11.73-11.8,6.66,0,10.91,4.07,11.32,10.53.12,1.77-.82,2.66-2.66,2.66H211.33c.1,3.75,2.4,5.92,6.12,5.92a6.83,6.83,0,0,0,4.73-1.63c1-.82,1.61-1.37,3-1l.55.13c1.82.44,2.13,1.46,1,2.91-1.94,2.65-5.22,4.12-9.53,4.12C210,49.44,205.25,44.8,205.25,37.63Zm17.44-2.58a5.16,5.16,0,0,0-5.56-5,5.31,5.31,0,0,0-5.7,5h11.26Z" transform="translate(-0.72 -0.45)"/><path class="cls-2" d="M233,40V30.79h-1a2.08,2.08,0,0,1-2.23-2.32c0-1.48.74-2.27,2-2.27H233V24.35c0-1.59.74-2.42,2.48-2.79l.7-.15c2.05-.44,2.93.36,2.93,2.27V26.2h3.61c1.85,0,2.66.79,2.66,2.27s-.81,2.32-2.66,2.32h-3.61v8.62c0,3.78,1.11,5.15,3.95,5.25,1.44.05,2.36.69,2.44,2.06a2.25,2.25,0,0,1-2.29,2.64c-.39,0-.79.06-1.15.06C235.89,49.42,233,46.93,233,40Z" transform="translate(-0.72 -0.45)"/><path class="cls-2" d="M262.52,28.71l0,.44c-.19,1.65-1.14,2.12-2.79,2.41-3,.51-4.59,2.54-4.59,6.72v8.13a2.41,2.41,0,0,1-2.67,2.66h-.74A2.41,2.41,0,0,1,249,46.41V28.86a2.41,2.41,0,0,1,2.67-2.67h.74c1.72,0,2.67.81,2.67,2.45v1a5.43,5.43,0,0,1,5.27-3.7C262,26,262.71,27,262.52,28.71Z" transform="translate(-0.72 -0.45)"/><path class="cls-2" d="M263.89,37.63c0-7.68,4.3-11.8,10-11.8,3.2,0,6.26,1.58,7.44,4.38V28.53c0-1.48,1-2.33,2.67-2.33h.74a2.4,2.4,0,0,1,2.67,2.66V46.37A2.4,2.4,0,0,1,284.74,49H284c-1.68,0-2.67-.84-2.67-2.28V45.19c-1.16,2.72-4.24,4.31-7.41,4.31C268.23,49.5,263.89,45.33,263.89,37.63Zm17.63,0c0-4.22-2.35-6.84-5.8-6.84S270,33.39,270,37.62s2.34,6.88,5.82,6.88S281.52,41.88,281.52,37.62Z" transform="translate(-0.72 -0.45)"/><path class="cls-2" d="M291.85,37.63c0-7,4.87-11.8,11.51-11.8,5,0,8.38,1.86,10,5.22.78,1.61.15,2.8-1.57,3.09l-.41.07c-1.46.25-2.15-.25-3.07-1.29a5.61,5.61,0,0,0-4.67-2.13c-3.41,0-5.73,2.75-5.73,6.84s2.32,6.82,5.73,6.82a5.73,5.73,0,0,0,4.62-2.11c.92-1,1.59-1.52,3-1.29l.31.05c1.83.29,2.49,1.45,1.78,3-1.58,3.39-5.12,5.36-10,5.36C296.8,49.44,291.85,44.71,291.85,37.63Z" transform="translate(-0.72 -0.45)"/><path class="cls-2" d="M336.67,49.07h-1.28a3.59,3.59,0,0,1-3.22-1.69l-7.59-9.25v8.28a2.4,2.4,0,0,1-2.66,2.66h-.76a2.4,2.4,0,0,1-2.67-2.66v-25a2.4,2.4,0,0,1,2.67-2.66h.76a2.4,2.4,0,0,1,2.66,2.66v15l7.17-8.58a3.54,3.54,0,0,1,3.19-1.66h1.19c2.25,0,2.95,1.47,1.59,3.23l-7,7.75,7.5,8.65C339.6,47.62,338.9,49.07,336.67,49.07Z" transform="translate(-0.72 -0.45)"/><path class="cls-2" d="M351.85,49.42c-3.83,0-7.55-1.31-9.53-3.49-1.24-1.35-1.05-3,1-3.39l.62-.13c1.23-.25,1.81.14,3.13,1.12a8.29,8.29,0,0,0,4.76,1.62c2.55,0,4.11-1,4.11-2.53,0-4.59-13.88-1.27-13.88-9.95,0-4.32,4.23-6.82,9.65-6.82,3.15,0,6.61,1,8.59,3,1.32,1.3,1.08,2.9-.84,3.33l-.52.11c-1.48.34-2.11-.37-3.14-1a7.89,7.89,0,0,0-4-1.25c-2.27,0-3.79.79-3.79,2.26,0,4.48,14,.77,14,9.75,0,4.47-4.11,7.36-10.23,7.36Z" transform="translate(-0.72 -0.45)"/></g></g><g class="cls-1"><g class="cls-1"><path class="cls-2" d="M99.31,7.28h1.09l.11.9h0A4.06,4.06,0,0,1,103,7.09c2,0,3.08,1.55,3.08,4,0,2.64-1.59,4.19-3.37,4.19a3.6,3.6,0,0,1-2.16-.89l0,1.36v2.62H99.31Zm5.44,3.78c0-1.71-.57-2.87-2-2.87a3.29,3.29,0,0,0-2.09,1.06v4.08a3.07,3.07,0,0,0,1.91.82C103.81,14.15,104.75,13,104.75,11.06Z" transform="translate(-0.72 -0.45)"/><path class="cls-2" d="M107.62,11.19c0-2.61,1.69-4.1,3.6-4.1s3.6,1.49,3.6,4.1-1.7,4.06-3.6,4.06S107.62,13.77,107.62,11.19Zm5.84,0c0-1.79-.9-3-2.24-3S109,9.4,109,11.19s.91,3,2.24,3S113.46,13,113.46,11.19Z" transform="translate(-0.72 -0.45)"/><path class="cls-2" d="M115.87,7.28h1.35l1.15,4.5c.17.74.32,1.44.46,2.16h.07c.17-.72.33-1.44.53-2.16l1.2-4.5h1.28l1.21,4.5c.19.74.37,1.44.55,2.16h.06c.18-.72.32-1.42.48-2.16l1.14-4.5h1.25l-2.08,7.78h-1.6l-1.13-4.18c-.19-.73-.33-1.45-.52-2.24h-.07c-.17.79-.33,1.52-.54,2.26l-1.09,4.16H118Z" transform="translate(-0.72 -0.45)"/><path class="cls-2" d="M127.65,11.19c0-2.55,1.71-4.1,3.49-4.1,2,0,3.1,1.43,3.1,3.65a4.15,4.15,0,0,1-.05.75h-5.25a2.59,2.59,0,0,0,2.6,2.71,3.48,3.48,0,0,0,1.93-.61l.47.86a4.58,4.58,0,0,1-2.56.8A3.72,3.72,0,0,1,127.65,11.19Zm5.44-.64c0-1.57-.7-2.42-1.92-2.42a2.4,2.4,0,0,0-2.24,2.42Z" transform="translate(-0.72 -0.45)"/><path class="cls-2" d="M136.16,7.28h1.09l.11,1.41h0a2.68,2.68,0,0,1,2.21-1.6,2,2,0,0,1,.83.16l-.26,1.15a2.14,2.14,0,0,0-.75-.13c-.65,0-1.44.49-2,1.8v5h-1.31Z" transform="translate(-0.72 -0.45)"/><path class="cls-2" d="M141,11.19c0-2.55,1.71-4.1,3.48-4.1,2,0,3.11,1.43,3.11,3.65a5.32,5.32,0,0,1,0,.75h-5.25a2.59,2.59,0,0,0,2.6,2.71,3.48,3.48,0,0,0,1.93-.61l.47.86a4.6,4.6,0,0,1-2.56.8A3.71,3.71,0,0,1,141,11.19Zm5.44-.64c0-1.57-.71-2.42-1.92-2.42a2.4,2.4,0,0,0-2.24,2.42Z" transform="translate(-0.72 -0.45)"/><path class="cls-2" d="M148.93,11.19c0-2.53,1.6-4.1,3.37-4.1a3.21,3.21,0,0,1,2.18.9l-.06-1.33v-3h1.33V15.06h-1.09l-.11-.91h-.05a3.52,3.52,0,0,1-2.36,1.1C150.19,15.25,148.93,13.78,148.93,11.19Zm5.49,1.89V9a2.73,2.73,0,0,0-1.89-.82c-1.25,0-2.24,1.21-2.24,3s.78,3,2.14,3A2.64,2.64,0,0,0,154.42,13.08Z" transform="translate(-0.72 -0.45)"/><path class="cls-2" d="M162.78,14.26h0l-.12.8h-1.05V3.67h1.31v3.1l0,1.41a3.86,3.86,0,0,1,2.43-1.09c2,0,3.09,1.55,3.09,3.95,0,2.66-1.58,4.21-3.36,4.21A3.47,3.47,0,0,1,162.78,14.26Zm4.23-3.2c0-1.71-.58-2.87-2-2.87a3.2,3.2,0,0,0-2.08,1.06v4.08a3,3,0,0,0,1.9.82C166.07,14.15,167,13,167,11.06Z" transform="translate(-0.72 -0.45)"/><path class="cls-2" d="M169.57,18.25l.25-1a2.21,2.21,0,0,0,.6.11c.88,0,1.44-.71,1.76-1.67l.17-.57-3.12-7.8h1.36l1.59,4.31c.24.67.51,1.47.75,2.19H173c.23-.7.45-1.5.66-2.19L175,7.28h1.28l-2.93,8.42c-.54,1.54-1.34,2.71-2.91,2.71A2.69,2.69,0,0,1,169.57,18.25Z" transform="translate(-0.72 -0.45)"/></g></g><path class="cls-3" d="M26.52,30.47,38.25,51.58c.12.21-.47.72-.66.86s-1.09-.18-1.22,0L24.65,31.88a1.88,1.88,0,0,1,.18-1.33A2.66,2.66,0,0,1,26.52,30.47Z" transform="translate(-0.72 -0.45)"/><path class="cls-3" d="M51.38,30.47,39.19,51.58c.41.21.46.72.65.86.5.14,1.1-.18,1.78,0L52.79,31.88a2,2,0,0,0-.19-1.33C52.41,30.41,51.51,30.25,51.38,30.47Z" transform="translate(-0.72 -0.45)"/><path class="cls-3" d="M39.46,8.59,67.21,51.26a.94.94,0,1,1-1.57,1h0L37.89,9.61a.93.93,0,0,1,.27-1.29h0C38.6,8.32,39.18,8.15,39.46,8.59Z" transform="translate(-0.72 -0.45)"/><path class="cls-3" d="M37.51,8.59,9.75,51.26a.86.86,0,0,0,.52,1.3c.19.28,1.15.16,1.05-.28L39.78,9.61c-.42-.43-.54-1-1-1.3C38.37,8.32,37.79,8.15,37.51,8.59Z" transform="translate(-0.72 -0.45)"/><path class="cls-4" d="M21.83,22.49h5.63a7.51,7.51,0,0,1,0,15H21.83a7.51,7.51,0,1,1-.24-15Z" transform="translate(-0.72 -0.45)"/><path class="cls-5" d="M63.58,44.54h5.63a7.6,7.6,0,0,1,7.5,7.91,7.43,7.43,0,0,1-7.5,7.1H63.58a6.87,6.87,0,0,1-6.86-7.1C56.72,47.9,59.43,44.54,63.58,44.54Z" transform="translate(-0.72 -0.45)"/><path class="cls-6" d="M49.51,22.49h5.62a7.51,7.51,0,0,1,0,15H49.51a7.51,7.51,0,1,1,0-15Z" transform="translate(-0.72 -0.45)"/><path class="cls-7" d="M35.9,44.54h5.63a7.87,7.87,0,0,1,7.83,7.91h0c0,3.74-3.68,7.1-7.83,7.1H35.9a7.43,7.43,0,0,1-7.5-7.1A7.6,7.6,0,0,1,35.9,44.54Z" transform="translate(-0.72 -0.45)"/><path class="cls-8" d="M35.9.45h5.63A7.79,7.79,0,0,1,49.36,8c0,5-3.68,7.51-7.83,7.51H35.9c-4.14,0-7.5-2.48-7.5-7.51A7.5,7.5,0,0,1,35.9.45Z" transform="translate(-0.72 -0.45)"/><path class="cls-9" d="M8.23,44.54h5.63c4.24,0,7.5,3.36,7.5,7.91a7.36,7.36,0,0,1-7.5,7.1H8.23c-3.4,0-7.51-3.36-7.51-7.1A8.11,8.11,0,0,1,8.23,44.54Z" transform="translate(-0.72 -0.45)"/></svg>